<?xml version="1.0" encoding="UTF-8" standalone="no"?>
<!DOCTYPE svg PUBLIC "-//W3C//DTD SVG 1.1//EN"
 "http://www.w3.org/Graphics/SVG/1.1/DTD/svg11.dtd">
<!-- Generated by graphviz version 2.43.0 (0)
 -->
<!-- Title: %3 Pages: 1 -->
<svg width="1002pt" height="476pt"
 viewBox="0.00 0.00 1001.50 476.00" xmlns="http://www.w3.org/2000/svg" xmlns:xlink="http://www.w3.org/1999/xlink">
<g id="graph0" class="graph" transform="scale(1 1) rotate(0) translate(4 472)">
<title>%3</title>
<polygon fill="white" stroke="transparent" points="-4,4 -4,-472 997.5,-472 997.5,4 -4,4"/>
<!-- [root] data.vsphere_datacenter.dc (expand) -->
<g id="node1" class="node">
<title>[root] data.vsphere_datacenter.dc (expand)</title>
<polygon fill="none" stroke="black" points="571.5,-180 358.5,-180 358.5,-144 571.5,-144 571.5,-180"/>
<text text-anchor="middle" x="465" y="-158.3" font-family="Times,serif" font-size="14.00">data.vsphere_datacenter.dc</text>
</g>
<!-- [root] provider[&quot;registry.terraform.io/hashicorp/vsphere&quot;] -->
<g id="node7" class="node">
<title>[root] provider[&quot;registry.terraform.io/hashicorp/vsphere&quot;]</title>
<polygon fill="none" stroke="black" points="465,-108 112.93,-90 465,-72 817.07,-90 465,-108"/>
<text text-anchor="middle" x="465" y="-86.3" font-family="Times,serif" font-size="14.00">provider[&quot;registry.terraform.io/hashicorp/vsphere&quot;]</text>
</g>
<!-- [root] data.vsphere_datacenter.dc (expand)&#45;&gt;[root] provider[&quot;registry.terraform.io/hashicorp/vsphere&quot;] -->
<g id="edge1" class="edge">
<title>[root] data.vsphere_datacenter.dc (expand)&#45;&gt;[root] provider[&quot;registry.terraform.io/hashicorp/vsphere&quot;]</title>
<path fill="none" stroke="black" d="M465,-143.7C465,-135.98 465,-126.71 465,-118.11"/>
<polygon fill="black" stroke="black" points="468.5,-118.1 465,-108.1 461.5,-118.1 468.5,-118.1"/>
</g>
<!-- [root] data.vsphere_datastore.datastore (expand) -->
<g id="node2" class="node">
<title>[root] data.vsphere_datastore.datastore (expand)</title>
<polygon fill="none" stroke="black" points="989.5,-252 732.5,-252 732.5,-216 989.5,-216 989.5,-252"/>
<text text-anchor="middle" x="861" y="-230.3" font-family="Times,serif" font-size="14.00">data.vsphere_datastore.datastore</text>
</g>
<!-- [root] data.vsphere_datastore.datastore (expand)&#45;&gt;[root] data.vsphere_datacenter.dc (expand) -->
<g id="edge2" class="edge">
<title>[root] data.vsphere_datastore.datastore (expand)&#45;&gt;[root] data.vsphere_datacenter.dc (expand)</title>
<path fill="none" stroke="black" d="M764.63,-215.97C706.19,-205.63 631.53,-192.44 571.36,-181.8"/>
<polygon fill="black" stroke="black" points="571.91,-178.34 561.45,-180.05 570.69,-185.24 571.91,-178.34"/>
</g>
<!-- [root] data.vsphere_host.host (expand) -->
<g id="node3" class="node">
<title>[root] data.vsphere_host.host (expand)</title>
<polygon fill="none" stroke="black" points="439,-252 257,-252 257,-216 439,-216 439,-252"/>
<text text-anchor="middle" x="348" y="-230.3" font-family="Times,serif" font-size="14.00">data.vsphere_host.host</text>
</g>
<!-- [root] data.vsphere_host.host (expand)&#45;&gt;[root] data.vsphere_datacenter.dc (expand) -->
<g id="edge3" class="edge">
<title>[root] data.vsphere_host.host (expand)&#45;&gt;[root] data.vsphere_datacenter.dc (expand)</title>
<path fill="none" stroke="black" d="M376.62,-215.88C391.92,-206.72 410.94,-195.34 427.42,-185.48"/>
<polygon fill="black" stroke="black" points="429.48,-188.33 436.27,-180.19 425.89,-182.32 429.48,-188.33"/>
</g>
<!-- [root] data.vsphere_network.network (expand) -->
<g id="node4" class="node">
<title>[root] data.vsphere_network.network (expand)</title>
<polygon fill="none" stroke="black" points="238,-252 0,-252 0,-216 238,-216 238,-252"/>
<text text-anchor="middle" x="119" y="-230.3" font-family="Times,serif" font-size="14.00">data.vsphere_network.network</text>
</g>
<!-- [root] data.vsphere_network.network (expand)&#45;&gt;[root] data.vsphere_datacenter.dc (expand) -->
<g id="edge4" class="edge">
<title>[root] data.vsphere_network.network (expand)&#45;&gt;[root] data.vsphere_datacenter.dc (expand)</title>
<path fill="none" stroke="black" d="M203.2,-215.97C253.84,-205.72 318.42,-192.66 370.76,-182.07"/>
<polygon fill="black" stroke="black" points="371.62,-185.46 380.72,-180.05 370.23,-178.6 371.62,-185.46"/>
</g>
<!-- [root] data.vsphere_resource_pool.pool (expand) -->
<g id="node5" class="node">
<title>[root] data.vsphere_resource_pool.pool (expand)</title>
<polygon fill="none" stroke="black" points="707,-252 457,-252 457,-216 707,-216 707,-252"/>
<text text-anchor="middle" x="582" y="-230.3" font-family="Times,serif" font-size="14.00">data.vsphere_resource_pool.pool</text>
</g>
<!-- [root] data.vsphere_resource_pool.pool (expand)&#45;&gt;[root] data.vsphere_datacenter.dc (expand) -->
<g id="edge5" class="edge">
<title>[root] data.vsphere_resource_pool.pool (expand)&#45;&gt;[root] data.vsphere_datacenter.dc (expand)</title>
<path fill="none" stroke="black" d="M553.38,-215.88C538.08,-206.72 519.06,-195.34 502.58,-185.48"/>
<polygon fill="black" stroke="black" points="504.11,-182.32 493.73,-180.19 500.52,-188.33 504.11,-182.32"/>
</g>
<!-- [root] data.vsphere_vmfs_disks.vmfs_disks (expand) -->
<g id="node6" class="node">
<title>[root] data.vsphere_vmfs_disks.vmfs_disks (expand)</title>
<polygon fill="none" stroke="black" points="423.5,-324 146.5,-324 146.5,-288 423.5,-288 423.5,-324"/>
<text text-anchor="middle" x="285" y="-302.3" font-family="Times,serif" font-size="14.00">data.vsphere_vmfs_disks.vmfs_disks</text>
</g>
<!-- [root] data.vsphere_vmfs_disks.vmfs_disks (expand)&#45;&gt;[root] data.vsphere_host.host (expand) -->
<g id="edge6" class="edge">
<title>[root] data.vsphere_vmfs_disks.vmfs_disks (expand)&#45;&gt;[root] data.vsphere_host.host (expand)</title>
<path fill="none" stroke="black" d="M300.57,-287.7C308.2,-279.22 317.52,-268.86 325.88,-259.58"/>
<polygon fill="black" stroke="black" points="328.52,-261.88 332.61,-252.1 323.31,-257.2 328.52,-261.88"/>
</g>
<!-- [root] var.vsphere_password -->
<g id="node8" class="node">
<title>[root] var.vsphere_password</title>
<polygon fill="none" stroke="black" points="364.5,-36 195.5,-36 195.5,0 370.5,0 370.5,-30 364.5,-36"/>
<polyline fill="none" stroke="black" points="364.5,-36 364.5,-30 "/>
<polyline fill="none" stroke="black" points="370.5,-30 364.5,-30 "/>
<text text-anchor="middle" x="283" y="-14.3" font-family="Times,serif" font-size="14.00">var.vsphere_password</text>
</g>
<!-- [root] provider[&quot;registry.terraform.io/hashicorp/vsphere&quot;]&#45;&gt;[root] var.vsphere_password -->
<g id="edge11" class="edge">
<title>[root] provider[&quot;registry.terraform.io/hashicorp/vsphere&quot;]&#45;&gt;[root] var.vsphere_password</title>
<path fill="none" stroke="black" d="M425.96,-73.98C399.96,-63.99 365.46,-50.72 336.87,-39.72"/>
<polygon fill="black" stroke="black" points="338.01,-36.41 327.42,-36.08 335.49,-42.94 338.01,-36.41"/>
</g>
<!-- [root] var.vsphere_server -->
<g id="node9" class="node">
<title>[root] var.vsphere_server</title>
<polygon fill="none" stroke="black" points="535,-36 389,-36 389,0 541,0 541,-30 535,-36"/>
<polyline fill="none" stroke="black" points="535,-36 535,-30 "/>
<polyline fill="none" stroke="black" points="541,-30 535,-30 "/>
<text text-anchor="middle" x="465" y="-14.3" font-family="Times,serif" font-size="14.00">var.vsphere_server</text>
</g>
<!-- [root] provider[&quot;registry.terraform.io/hashicorp/vsphere&quot;]&#45;&gt;[root] var.vsphere_server -->
<g id="edge12" class="edge">
<title>[root] provider[&quot;registry.terraform.io/hashicorp/vsphere&quot;]&#45;&gt;[root] var.vsphere_server</title>
<path fill="none" stroke="black" d="M465,-71.7C465,-63.98 465,-54.71 465,-46.11"/>
<polygon fill="black" stroke="black" points="468.5,-46.1 465,-36.1 461.5,-46.1 468.5,-46.1"/>
</g>
<!-- [root] var.vsphere_user -->
<g id="node10" class="node">
<title>[root] var.vsphere_user</title>
<polygon fill="none" stroke="black" points="691,-36 559,-36 559,0 697,0 697,-30 691,-36"/>
<polyline fill="none" stroke="black" points="691,-36 691,-30 "/>
<polyline fill="none" stroke="black" points="697,-30 691,-30 "/>
<text text-anchor="middle" x="628" y="-14.3" font-family="Times,serif" font-size="14.00">var.vsphere_user</text>
</g>
<!-- [root] provider[&quot;registry.terraform.io/hashicorp/vsphere&quot;]&#45;&gt;[root] var.vsphere_user -->
<g id="edge13" class="edge">
<title>[root] provider[&quot;registry.terraform.io/hashicorp/vsphere&quot;]&#45;&gt;[root] var.vsphere_user</title>
<path fill="none" stroke="black" d="M500.77,-73.64C523.71,-63.79 553.78,-50.87 578.94,-40.07"/>
<polygon fill="black" stroke="black" points="580.5,-43.21 588.31,-36.04 577.74,-36.77 580.5,-43.21"/>
</g>
<!-- [root] vsphere_resource_pool.resource_pool (expand) -->
<g id="node11" class="node">
<title>[root] vsphere_resource_pool.resource_pool (expand)</title>
<polygon fill="none" stroke="black" points="724.5,-324 441.5,-324 441.5,-288 724.5,-288 724.5,-324"/>
<text text-anchor="middle" x="583" y="-302.3" font-family="Times,serif" font-size="14.00">vsphere_resource_pool.resource_pool</text>
</g>
<!-- [root] vsphere_resource_pool.resource_pool (expand)&#45;&gt;[root] data.vsphere_resource_pool.pool (expand) -->
<g id="edge15" class="edge">
<title>[root] vsphere_resource_pool.resource_pool (expand)&#45;&gt;[root] data.vsphere_resource_pool.pool (expand)</title>
<path fill="none" stroke="black" d="M582.75,-287.7C582.64,-279.98 582.51,-270.71 582.39,-262.11"/>
<polygon fill="black" stroke="black" points="585.89,-262.05 582.24,-252.1 578.89,-262.15 585.89,-262.05"/>
</g>
<!-- [root] vsphere_virtual_disk.virtual_disk (expand) -->
<g id="node12" class="node">
<title>[root] vsphere_virtual_disk.virtual_disk (expand)</title>
<polygon fill="none" stroke="black" points="993.5,-324 742.5,-324 742.5,-288 993.5,-288 993.5,-324"/>
<text text-anchor="middle" x="868" y="-302.3" font-family="Times,serif" font-size="14.00">vsphere_virtual_disk.virtual_disk</text>
</g>
<!-- [root] vsphere_virtual_disk.virtual_disk (expand)&#45;&gt;[root] data.vsphere_datastore.datastore (expand) -->
<g id="edge16" class="edge">
<title>[root] vsphere_virtual_disk.virtual_disk (expand)&#45;&gt;[root] data.vsphere_datastore.datastore (expand)</title>
<path fill="none" stroke="black" d="M866.27,-287.7C865.5,-279.98 864.57,-270.71 863.71,-262.11"/>
<polygon fill="black" stroke="black" points="867.19,-261.71 862.71,-252.1 860.22,-262.4 867.19,-261.71"/>
</g>
<!-- [root] provider[&quot;registry.terraform.io/hashicorp/vsphere&quot;] (close) -->
<g id="node13" class="node">
<title>[root] provider[&quot;registry.terraform.io/hashicorp/vsphere&quot;] (close)</title>
<ellipse fill="none" stroke="black" cx="434" cy="-378" rx="311.14" ry="18"/>
<text text-anchor="middle" x="434" y="-374.3" font-family="Times,serif" font-size="14.00">[root] provider[&quot;registry.terraform.io/hashicorp/vsphere&quot;] (close)</text>
</g>
<!-- [root] provider[&quot;registry.terraform.io/hashicorp/vsphere&quot;] (close)&#45;&gt;[root] data.vsphere_network.network (expand) -->
<g id="edge7" class="edge">
<title>[root] provider[&quot;registry.terraform.io/hashicorp/vsphere&quot;] (close)&#45;&gt;[root] data.vsphere_network.network (expand)</title>
<path fill="none" stroke="black" d="M262.42,-362.92C207.64,-355 156.2,-342.76 137,-324 120.75,-308.12 117.09,-281.92 117,-262.05"/>
<polygon fill="black" stroke="black" points="120.5,-262.12 117.24,-252.04 113.5,-261.95 120.5,-262.12"/>
</g>
<!-- [root] provider[&quot;registry.terraform.io/hashicorp/vsphere&quot;] (close)&#45;&gt;[root] data.vsphere_vmfs_disks.vmfs_disks (expand) -->
<g id="edge8" class="edge">
<title>[root] provider[&quot;registry.terraform.io/hashicorp/vsphere&quot;] (close)&#45;&gt;[root] data.vsphere_vmfs_disks.vmfs_disks (expand)</title>
<path fill="none" stroke="black" d="M397.93,-360.05C377.67,-350.54 352.2,-338.57 330.57,-328.41"/>
<polygon fill="black" stroke="black" points="331.79,-325.12 321.25,-324.03 328.82,-331.45 331.79,-325.12"/>
</g>
<!-- [root] provider[&quot;registry.terraform.io/hashicorp/vsphere&quot;] (close)&#45;&gt;[root] vsphere_resource_pool.resource_pool (expand) -->
<g id="edge9" class="edge">
<title>[root] provider[&quot;registry.terraform.io/hashicorp/vsphere&quot;] (close)&#45;&gt;[root] vsphere_resource_pool.resource_pool (expand)</title>
<path fill="none" stroke="black" d="M470.07,-360.05C490.33,-350.54 515.8,-338.57 537.43,-328.41"/>
<polygon fill="black" stroke="black" points="539.18,-331.45 546.75,-324.03 536.21,-325.12 539.18,-331.45"/>
</g>
<!-- [root] provider[&quot;registry.terraform.io/hashicorp/vsphere&quot;] (close)&#45;&gt;[root] vsphere_virtual_disk.virtual_disk (expand) -->
<g id="edge10" class="edge">
<title>[root] provider[&quot;registry.terraform.io/hashicorp/vsphere&quot;] (close)&#45;&gt;[root] vsphere_virtual_disk.virtual_disk (expand)</title>
<path fill="none" stroke="black" d="M533.57,-360.94C598.81,-350.42 684.31,-336.63 752.52,-325.63"/>
<polygon fill="black" stroke="black" points="753.14,-329.07 762.46,-324.02 752.03,-322.16 753.14,-329.07"/>
</g>
<!-- [root] root -->
<g id="node14" class="node">
<title>[root] root</title>
<ellipse fill="none" stroke="black" cx="434" cy="-450" rx="58.49" ry="18"/>
<text text-anchor="middle" x="434" y="-446.3" font-family="Times,serif" font-size="14.00">[root] root</text>
</g>
<!-- [root] root&#45;&gt;[root] provider[&quot;registry.terraform.io/hashicorp/vsphere&quot;] (close) -->
<g id="edge14" class="edge">
<title>[root] root&#45;&gt;[root] provider[&quot;registry.terraform.io/hashicorp/vsphere&quot;] (close)</title>
<path fill="none" stroke="black" d="M434,-431.7C434,-423.98 434,-414.71 434,-406.11"/>
<polygon fill="black" stroke="black" points="437.5,-406.1 434,-396.1 430.5,-406.1 437.5,-406.1"/>
</g>
</g>
</svg>
